{
  "accessors": [
    {
      "bufferView": 0,
      "componentType": 5126,
      "count": 9326,
      "max": [
        0.06609495729207993,
        0.044297847896814346,
        0.13198484480381012
      ],
      "min": [
        -0.06196700036525726,
        -0.03169799968600273,
        -0.0002690000110305846
      ],
      "type": "VEC3"
    },
    {
      "bufferView": 1,
      "componentType": 5125,
      "count": 24649,
      "type": "SCALAR"
    },
    {
      "bufferView": 2,
      "componentType": 5126,
      "count": 9326,
      "type": "VEC3"
    },
    {
      "bufferView": 3,
      "componentType": 5126,
      "count": 9326,
      "type": "VEC4"
    },
    {
      "bufferView": 4,
      "componentType": 5126,
      "count": 9326,
      "type": "VEC2"
    },
    {
      "bufferView": 5,
      "componentType": 5126,
      "count": 9326,
      "max": [
        0.06609495729207993,
        0.044297847896814346,
        0.13198484480381012
      ],
      "min": [
        -0.06196700036525726,
        -0.03169799968600273,
        -0.0002690000110305846
      ],
      "type": "VEC3"
    },
    {
      "bufferView": 6,
      "componentType": 5125,
      "count": 1422,
      "type": "SCALAR"
    },
    {
      "bufferView": 7,
      "componentType": 5126,
      "count": 9326,
      "type": "VEC3"
    },
    {
      "bufferView": 8,
      "componentType": 5126,
      "count": 9326,
      "type": "VEC4"
    },
    {
      "bufferView": 9,
      "componentType": 5126,
      "count": 9326,
      "type": "VEC2"
    }
  ],
  "asset": {
    "version": "2.0"
  },
  "bufferViews": [
    {
      "buffer": 0,
      "byteLength": 111912,
      "target": 34962
    },
    {
      "buffer": 1,
      "byteLength": 98596,
      "target": 34963
    },
    {
      "buffer": 2,
      "byteLength": 111912,
      "target": 34962
    },
    {
      "buffer": 3,
      "byteLength": 149216,
      "target": 34962
    },
    {
      "buffer": 4,
      "byteLength": 74608,
      "target": 34962
    },
    {
      "buffer": 0,
      "byteLength": 111912,
      "target": 34962
    },
    {
      "buffer": 5,
      "byteLength": 5688,
      "target": 34963
    },
    {
      "buffer": 2,
      "byteLength": 111912,
      "target": 34962
    },
    {
      "buffer": 3,
      "byteLength": 149216,
      "target": 34962
    },
    {
      "buffer": 4,
      "byteLength": 74608,
      "target": 34962
    }
  ],
  "buffers": [
    {
      "byteLength": 111912,
      "uri": "data:application/octet-stream;base64,"
    },
    {
      "byteLength": 98596,
      "uri": "data:application/octet-stream;base64,"
    },
    {
      "byteLength": 111912,
      "uri": "data:application/octet-stream;base64,"
    },
    {
      "byteLength": 149216,
      "uri": "data:application/octet-stream;base64,"
    },
    {
      "byteLength": 74608,
      "uri": "data:application/octet-stream;base64,"
    },
    {
      "byteLength": 5688,
      "uri": "data:application/octet-stream;base64,"
    }
  ],
  "images": [
    {
      "uri": "textures/fb_abFantasyFairy_rough.combined.png"
    },
    {
      "uri": "textures/fb_abFantasyFairy_albedo.png"
    },
    {
      "uri": "textures/fb_abFantasyFairy_ao.png"
    },
    {
      "uri": "textures/fb_abFantasyFairy_nrm.png"
    }
  ],
  "materials": [
    {
      "name": "fb_abFantasyFairy",
      "normalTexture": {
        "index": 3
      },
      "occlusionTexture": {
        "index": 2
      },
      "pbrMetallicRoughness": {
        "baseColorTexture": {
          "index": 1
        },
        "metallicFactor": 0.0,
        "metallicRoughnessTexture": {
          "index": 0
        }
      }
    }
  ],
  "meshes": [
    {
      "primitives": [
        {
          "attributes": {
            "NORMAL": 2,
            "POSITION": 0,
            "TANGENT": 3,
            "TEXCOORD_0": 4
          },
          "indices": 1,
          "material": 0,
          "mode": 5
        },
        {
          "attributes": {
            "NORMAL": 7,
            "POSITION": 5,
            "TANGENT": 8,
            "TEXCOORD_0": 9
          },
          "indices": 6,
          "material": 0,
          "mode": 4
        }
      ]
    }
  ],
  "nodes": [
    {
      "mesh": 0,
      "name": "_gltfNode_0"
    },
    {
      "children": [
        0
      ],
      "name": "GLTF Converted Scene",
      "rotation": [
        -0.7071067811865475,
        0.0,
        0.0,
        0.7071067811865476
      ],
      "scale": [
        1.0,
        1.0,
        1.0
      ],
      "translation": [
        0.0,
        0.0,
        0.0
      ]
    }
  ],
  "samplers": [
    {
      "magFilter": 9729,
      "minFilter": 9987,
      "wrapS": 10497,
      "wrapT": 10497
    },
    {
      "magFilter": 9729,
      "minFilter": 9987,
      "wrapS": 10497,
      "wrapT": 10497
    },
    {
      "magFilter": 9729,
      "minFilter": 9987,
      "wrapS": 10497,
      "wrapT": 10497
    },
    {
      "magFilter": 9729,
      "minFilter": 9987,
      "wrapS": 10497,
      "wrapT": 10497
    }
  ],
  "scene": 0,
  "scenes": [
    {
      "nodes": [
        1
      ]
    }
  ],
  "textures": [
    {
      "sampler": 0,
      "source": 0
    },
    {
      "sampler": 1,
      "source": 1
    },
    {
      "sampler": 2,
      "source": 2
    },
    {
      "sampler": 3,
      "source": 3
    }
  ]
}
